<svg width="316" height="85" viewBox="0 0 316 85" fill="none" xmlns="http://www.w3.org/2000/svg">
<path d="M0.840001 64H-0.159999V65H0.840001V64ZM0.840001 0.0999966V-0.900003H-0.159999V0.0999966H0.840001ZM52.59 0.0999966H53.59V-0.900003H52.59V0.0999966ZM52.59 64V65H53.59V64H52.59ZM40.26 64H39.26V65H40.26V64ZM40.26 10.99H41.26V9.99H40.26V10.99ZM13.17 10.99V9.99H12.17V10.99H13.17ZM13.17 64V65H14.17V64H13.17ZM1.84 64V0.0999966H-0.159999V64H1.84ZM0.840001 1.1H52.59V-0.900003H0.840001V1.1ZM51.59 0.0999966V64H53.59V0.0999966H51.59ZM52.59 63H40.26V65H52.59V63ZM41.26 64V10.99H39.26V64H41.26ZM40.26 9.99H13.17V11.99H40.26V9.99ZM12.17 10.99V64H14.17V10.99H12.17ZM13.17 63H0.840001V65H13.17V63ZM76.3106 63.01L75.9145 63.9282L75.9222 63.9315L75.9299 63.9347L76.3106 63.01ZM68.4806 57.61L67.745 58.2875L67.7547 58.2977L68.4806 57.61ZM63.6206 49.78L64.553 49.4185L63.6206 49.78ZM63.6206 31.15L64.553 31.5115L63.6206 31.15ZM68.4806 23.32L67.7546 22.6322L67.7451 22.6425L68.4806 23.32ZM76.3106 18.01L76.6914 18.9347L76.6991 18.9315L76.7067 18.9282L76.3106 18.01ZM96.9206 18.01L96.5179 18.9253L96.5288 18.9301L96.5399 18.9347L96.9206 18.01ZM104.751 23.32L104.025 24.0077L104.751 23.32ZM109.611 31.15L108.672 31.4948L108.675 31.5032L108.678 31.5115L109.611 31.15ZM109.611 49.78L108.678 49.4185L108.675 49.4268L108.672 49.4352L109.611 49.78ZM104.751 57.61L104.025 56.9222L104.015 56.9325L104.751 57.61ZM97.0106 63.01L97.3914 63.9347L97.3991 63.9315L97.4067 63.9282L97.0106 63.01ZM75.9506 47.89L75.0561 48.3372L75.0613 48.3474L75.9506 47.89ZM80.3606 52.84L80.9028 51.9997L80.3606 52.84ZM92.8706 52.84L93.4128 53.6803L93.4222 53.6742L93.4315 53.6679L92.8706 52.84ZM97.2806 47.8L96.3962 47.3332L96.3913 47.3427L97.2806 47.8ZM97.2806 33.13L96.3862 33.5772L96.3911 33.587L96.3962 33.5968L97.2806 33.13ZM92.8706 28.09L92.3285 28.9303L92.8706 28.09ZM80.3606 28.18L80.9028 29.0203L80.9122 29.0142L80.9215 29.0079L80.3606 28.18ZM75.9506 33.22L76.84 33.6774L76.8451 33.6672L75.9506 33.22ZM86.6606 63.9C82.9305 63.9 79.6128 63.2883 76.6914 62.0853L75.9299 63.9347C79.1284 65.2517 82.7107 65.9 86.6606 65.9V63.9ZM76.7067 62.0918C73.7634 60.8221 71.2678 59.0979 69.2066 56.9223L67.7547 58.2977C70.0135 60.6821 72.7378 62.5579 75.9145 63.9282L76.7067 62.0918ZM69.2162 56.9325C67.2025 54.7462 65.6485 52.2438 64.553 49.4185L62.6883 50.1415C63.8727 53.1962 65.5588 55.9138 67.7451 58.2875L69.2162 56.9325ZM64.553 49.4185C63.4589 46.5969 62.9106 43.6298 62.9106 40.51H60.9106C60.9106 43.8702 61.5023 47.083 62.6883 50.1415L64.553 49.4185ZM62.9106 40.51C62.9106 37.3278 63.4598 34.3309 64.553 31.5115L62.6883 30.7885C61.5015 33.8491 60.9106 37.0922 60.9106 40.51H62.9106ZM64.553 31.5115C65.6485 28.6862 67.2025 26.1838 69.2162 23.9975L67.7451 22.6425C65.5588 25.0162 63.8727 27.7338 62.6883 30.7885L64.553 31.5115ZM69.2066 24.0077C71.2643 21.8357 73.7547 20.1439 76.6914 18.9347L75.9299 17.0853C72.7465 18.3961 70.0169 20.2443 67.7547 22.6323L69.2066 24.0077ZM76.7067 18.9282C79.624 17.6698 82.9363 17.03 86.6606 17.03V15.03C82.705 15.03 79.1172 15.7102 75.9145 17.0918L76.7067 18.9282ZM86.6606 17.03C90.3855 17.03 93.6647 17.6699 96.5179 18.9253L97.3234 17.0947C94.1765 15.7101 90.6158 15.03 86.6606 15.03V17.03ZM96.5399 18.9347C99.4765 20.1439 101.967 21.8357 104.025 24.0077L105.477 22.6323C103.214 20.2443 100.485 18.3961 97.3014 17.0853L96.5399 18.9347ZM104.025 24.0077C106.091 26.1894 107.639 28.6828 108.672 31.4948L110.549 30.8052C109.422 27.7372 107.73 25.0106 105.477 22.6323L104.025 24.0077ZM108.678 31.5115C109.771 34.3309 110.321 37.3278 110.321 40.51H112.321C112.321 37.0922 111.73 33.8491 110.543 30.7885L108.678 31.5115ZM110.321 40.51C110.321 43.6298 109.772 46.5969 108.678 49.4185L110.543 50.1415C111.729 47.083 112.321 43.8702 112.321 40.51H110.321ZM108.672 49.4352C107.639 52.2472 106.091 54.7406 104.025 56.9223L105.477 58.2977C107.73 55.9194 109.422 53.1928 110.549 50.1248L108.672 49.4352ZM104.015 56.9325C102.017 59.1018 99.5556 60.8231 96.6145 62.0918L97.4067 63.9282C100.586 62.5569 103.284 60.6782 105.486 58.2875L104.015 56.9325ZM96.6299 62.0853C93.7084 63.2883 90.3907 63.9 86.6606 63.9V65.9C90.6105 65.9 94.1928 65.2517 97.3914 63.9347L96.6299 62.0853ZM73.3306 40.51C73.3306 43.403 73.8975 46.0197 75.0562 48.3372L76.8451 47.4428C75.8438 45.4403 75.3306 43.137 75.3306 40.51H73.3306ZM75.0613 48.3474C76.216 50.5924 77.8013 52.3789 79.8185 53.6803L80.9028 51.9997C79.1999 50.9011 77.8453 49.3876 76.8399 47.4327L75.0613 48.3474ZM79.8185 53.6803C81.8495 54.9906 84.1399 55.64 86.6606 55.64V53.64C84.5014 53.64 82.5917 53.0894 80.9028 51.9997L79.8185 53.6803ZM86.6606 55.64C89.1268 55.64 91.3861 54.9878 93.4128 53.6803L92.3285 51.9997C90.6351 53.0922 88.7544 53.64 86.6606 53.64V55.64ZM93.4315 53.6679C95.4375 52.309 97.0173 50.4986 98.1699 48.2573L96.3913 47.3427C95.384 49.3014 94.0238 50.851 92.3098 52.0121L93.4315 53.6679ZM98.165 48.2668C99.3903 45.9451 99.9906 43.3213 99.9906 40.42H97.9906C97.9906 43.0387 97.4509 45.3349 96.3962 47.3332L98.165 48.2668ZM99.9906 40.42C99.9906 37.5748 99.3887 34.9818 98.165 32.6632L96.3962 33.5968C97.4526 35.5982 97.9906 37.8652 97.9906 40.42H99.9906ZM98.1751 32.6828C97.0225 30.3776 95.4368 28.5555 93.4128 27.2497L92.3285 28.9303C94.0245 30.0245 95.3788 31.5624 96.3862 33.5772L98.1751 32.6828ZM93.4128 27.2497C91.3861 25.9422 89.1268 25.29 86.6606 25.29V27.29C88.7544 27.29 90.6351 27.8378 92.3285 28.9303L93.4128 27.2497ZM86.6606 25.29C84.1295 25.29 81.8325 25.9751 79.7998 27.3521L80.9215 29.0079C82.6088 27.8649 84.5118 27.29 86.6606 27.29V25.29ZM79.8185 27.3397C77.7944 28.6455 76.2088 30.4676 75.0562 32.7728L76.8451 33.6672C77.8525 31.6524 79.2068 30.1145 80.9028 29.0203L79.8185 27.3397ZM75.0613 32.7626C73.8972 35.0262 73.3306 37.6178 73.3306 40.51H75.3306C75.3306 37.8822 75.844 35.6138 76.8399 33.6773L75.0613 32.7626ZM116.041 64.63H115.041V65.6477L116.058 65.6298L116.041 64.63ZM116.041 53.92L115.999 52.9209L115.041 52.9608V53.92H116.041ZM119.911 52.84L119.41 51.9746L119.911 52.84ZM122.881 49.51L122.006 49.0243L122 49.0359L122.881 49.51ZM124.951 42.76L123.968 42.5757L123.966 42.5856L123.964 42.5956L124.951 42.76ZM126.031 31.69L125.032 31.6476L125.032 31.65L126.031 31.69ZM126.661 16.84V15.84H125.702L125.662 16.7976L126.661 16.84ZM162.031 16.84H163.031V15.84H162.031V16.84ZM162.031 64V65H163.031V64H162.031ZM149.971 64H148.971V65H149.971V64ZM149.971 27.37H150.971V26.37H149.971V27.37ZM137.281 27.37V26.37H136.313L136.281 27.3372L137.281 27.37ZM137.101 32.86L138.1 32.8988L138.1 32.8928L137.101 32.86ZM131.251 57.97L130.441 57.383L130.438 57.3868L131.251 57.97ZM124.951 63.01L125.326 63.9369L124.951 63.01ZM117.041 64.63V53.92H115.041V64.63H117.041ZM116.082 54.9191C117.668 54.853 119.119 54.454 120.412 53.7054L119.41 51.9746C118.423 52.546 117.293 52.867 115.999 52.9209L116.082 54.9191ZM120.412 53.7054C121.758 52.9258 122.863 51.6526 123.761 49.9841L122 49.0359C121.219 50.4874 120.343 51.4342 119.41 51.9746L120.412 53.7054ZM123.755 49.9956C124.733 48.2353 125.448 45.8599 125.937 42.9244L123.964 42.5956C123.494 45.4201 122.829 47.5447 122.007 49.0244L123.755 49.9956ZM125.934 42.9443C126.486 39.9985 126.849 36.2556 127.03 31.73L125.032 31.65C124.853 36.1244 124.495 39.7615 123.968 42.5757L125.934 42.9443ZM127.03 31.7324L127.66 16.8824L125.662 16.7976L125.032 31.6476L127.03 31.7324ZM126.661 17.84H162.031V15.84H126.661V17.84ZM161.031 16.84V64H163.031V16.84H161.031ZM162.031 63H149.971V65H162.031V63ZM150.971 64V27.37H148.971V64H150.971ZM149.971 26.37H137.281V28.37H149.971V26.37ZM136.281 27.3372L136.101 32.8272L138.1 32.8928L138.28 27.4028L136.281 27.3372ZM136.101 32.8212C135.863 38.9643 135.267 44.0252 134.327 48.021L136.274 48.479C137.254 44.3148 137.859 39.1157 138.1 32.8988L136.101 32.8212ZM134.327 48.021C133.386 52.0214 132.078 55.1249 130.441 57.383L132.06 58.557C133.903 56.0151 135.295 52.6386 136.274 48.479L134.327 48.021ZM130.438 57.3868C128.862 59.5828 126.91 61.1383 124.576 62.0831L125.326 63.9369C128.032 62.8417 130.28 61.0372 132.063 58.5532L130.438 57.3868ZM124.576 62.0831C122.194 63.0468 119.351 63.5718 116.023 63.6302L116.058 65.6298C119.571 65.5682 122.667 65.0132 125.326 63.9369L124.576 62.0831ZM175.96 83.89L175.729 84.8629L175.739 84.8651L175.96 83.89ZM171.55 82.54L170.579 82.3018L170.364 83.1782L171.214 83.4817L171.55 82.54ZM173.89 73L174.313 72.0938L173.209 71.5787L172.919 72.7618L173.89 73ZM176.41 73.9L176.185 74.8744L176.193 74.8762L176.201 74.8778L176.41 73.9ZM182.62 72.55L181.951 71.8067L181.942 71.8153L181.933 71.8241L182.62 72.55ZM185.5 67.6L184.563 67.2513L184.556 67.2712L184.549 67.2915L185.5 67.6ZM186.94 63.73L187.878 64.0787L188.013 63.7138L187.867 63.3531L186.94 63.73ZM167.86 16.84V15.84H166.374L166.934 17.2169L167.86 16.84ZM180.37 16.84L181.31 16.4977L181.07 15.84H180.37V16.84ZM193.06 51.67L192.121 52.0123L193.121 54.7578L194.013 51.9751L193.06 51.67ZM204.22 16.84V15.84H203.491L203.268 16.5349L204.22 16.84ZM215.74 16.84L216.682 17.1764L217.159 15.84H215.74V16.84ZM196.48 70.75L195.539 70.4136L195.538 70.4162L196.48 70.75ZM192.43 78.04L191.668 77.393L191.663 77.3986L191.658 77.4043L192.43 78.04ZM186.67 82.72L186.223 81.8256L186.67 82.72ZM179.83 83.34C178.65 83.34 177.435 83.1996 176.182 82.9149L175.739 84.8651C177.126 85.1804 178.49 85.34 179.83 85.34V83.34ZM176.192 82.9172C174.978 82.6281 173.544 82.1902 171.887 81.5983L171.214 83.4817C172.917 84.0898 174.423 84.5519 175.729 84.8628L176.192 82.9172ZM172.522 82.7782L174.862 73.2382L172.919 72.7618L170.579 82.3018L172.522 82.7782ZM173.467 73.9062C174.416 74.349 175.323 74.6754 176.185 74.8744L176.635 72.9256C175.937 72.7646 175.164 72.491 174.313 72.0938L173.467 73.9062ZM176.201 74.8778C177.09 75.0684 177.912 75.17 178.66 75.17V73.17C178.088 73.17 177.41 73.0916 176.62 72.9222L176.201 74.8778ZM178.66 75.17C180.429 75.17 181.992 74.5228 183.308 73.276L181.933 71.8241C180.969 72.7372 179.891 73.17 178.66 73.17V75.17ZM183.289 73.2933C184.665 72.0547 185.7 70.2258 186.452 67.9085L184.549 67.2915C183.861 69.4142 182.975 70.8853 181.951 71.8067L183.289 73.2933ZM186.438 67.9487L187.878 64.0787L186.003 63.3813L184.563 67.2513L186.438 67.9487ZM187.867 63.3531L168.787 16.4631L166.934 17.2169L186.014 64.1069L187.867 63.3531ZM167.86 17.84H180.37V15.84H167.86V17.84ZM179.431 17.1823L192.121 52.0123L194 51.3277L181.31 16.4977L179.431 17.1823ZM194.013 51.9751L205.173 17.1451L203.268 16.5349L192.108 51.3649L194.013 51.9751ZM204.22 17.84H215.74V15.84H204.22V17.84ZM214.799 16.5036L195.539 70.4136L197.422 71.0864L216.682 17.1764L214.799 16.5036ZM195.538 70.4162C194.551 73.2015 193.257 75.5204 191.668 77.393L193.193 78.687C194.964 76.5996 196.369 74.0585 197.423 71.0838L195.538 70.4162ZM191.658 77.4043C190.059 79.3466 188.247 80.8138 186.223 81.8256L187.118 83.6144C189.414 82.4662 191.442 80.8134 193.202 78.6757L191.658 77.4043ZM186.223 81.8256C184.201 82.8366 182.074 83.34 179.83 83.34V85.34C182.387 85.34 184.82 84.7634 187.118 83.6144L186.223 81.8256ZM248.573 64H247.573V65H248.573V64ZM248.573 47.08H249.573V45.5568L248.175 46.1624L248.573 47.08ZM243.083 48.79L242.893 47.8082L242.887 47.8094L243.083 48.79ZM225.173 45.37L224.481 46.0924L224.489 46.1L225.173 45.37ZM220.943 16.84V15.84H219.943V16.84H220.943ZM233.003 16.84H234.003V15.84H233.003V16.84ZM234.803 38.17L234.063 38.8427L234.071 38.8517L234.079 38.8605L234.803 38.17ZM244.883 39.7L244.679 38.721L244.883 39.7ZM248.573 38.44L249.041 39.3238L249.573 39.0421V38.44H248.573ZM248.573 16.84V15.84H247.573V16.84H248.573ZM260.723 16.84H261.723V15.84H260.723V16.84ZM260.723 64V65H261.723V64H260.723ZM249.573 64V47.08H247.573V64H249.573ZM248.175 46.1624C246.439 46.9146 244.679 47.4625 242.893 47.8082L243.273 49.7718C245.207 49.3975 247.106 48.8054 248.97 47.9976L248.175 46.1624ZM242.887 47.8094C241.166 48.1535 239.164 48.33 236.873 48.33V50.33C239.262 50.33 241.4 50.1464 243.279 49.7706L242.887 47.8094ZM236.873 48.33C232.071 48.33 228.442 47.0608 225.856 44.64L224.489 46.1C227.543 48.9592 231.715 50.33 236.873 50.33V48.33ZM225.864 44.6477C223.299 42.1914 221.943 38.5588 221.943 33.58H219.943C219.943 38.9212 221.407 43.1486 224.481 46.0923L225.864 44.6477ZM221.943 33.58V16.84H219.943V33.58H221.943ZM220.943 17.84H233.003V15.84H220.943V17.84ZM232.003 16.84V31.96H234.003V16.84H232.003ZM232.003 31.96C232.003 34.8909 232.621 37.2572 234.063 38.8427L235.543 37.4973C234.584 36.4428 234.003 34.6691 234.003 31.96H232.003ZM234.079 38.8605C235.595 40.4483 237.825 41.15 240.563 41.15V39.15C238.141 39.15 236.53 38.5317 235.526 37.4795L234.079 38.8605ZM240.563 41.15C242.073 41.15 243.581 40.9927 245.087 40.679L244.679 38.721C243.304 39.0073 241.933 39.15 240.563 39.15V41.15ZM245.087 40.679C246.595 40.3648 247.918 39.9179 249.041 39.3238L248.105 37.5562C247.187 38.0421 246.051 38.4352 244.679 38.721L245.087 40.679ZM249.573 38.44V16.84H247.573V38.44H249.573ZM248.573 17.84H260.723V15.84H248.573V17.84ZM259.723 16.84V64H261.723V16.84H259.723ZM260.723 63H248.573V65H260.723V63ZM271.687 64H270.687V65H271.687V64ZM271.687 16.93V15.93H270.687V16.93H271.687ZM283.747 16.93H284.747V15.93H283.747V16.93ZM283.747 47.89H282.747V51.1344L284.574 48.453L283.747 47.89ZM304.897 16.84V15.84H304.368L304.071 16.277L304.897 16.84ZM315.877 16.84H316.877V15.84H315.877V16.84ZM315.877 64V65H316.877V64H315.877ZM303.817 64H302.817V65H303.817V64ZM303.817 33.76H304.817V30.5518L302.994 33.1918L303.817 33.76ZM282.937 64V65H283.462L283.76 64.5682L282.937 64ZM272.687 64V16.93H270.687V64H272.687ZM271.687 17.93H283.747V15.93H271.687V17.93ZM282.747 16.93V47.89H284.747V16.93H282.747ZM284.574 48.453L305.724 17.403L304.071 16.277L282.921 47.327L284.574 48.453ZM304.897 17.84H315.877V15.84H304.897V17.84ZM314.877 16.84V64H316.877V16.84H314.877ZM315.877 63H303.817V65H315.877V63ZM304.817 64V33.76H302.817V64H304.817ZM302.994 33.1918L282.114 63.4318L283.76 64.5682L304.64 34.3282L302.994 33.1918ZM282.937 63H271.687V65H282.937V63Z" fill="#BCBCBC"/>
</svg>
