<svg width="312" height="69" viewBox="0 0 312 69" fill="none" xmlns="http://www.w3.org/2000/svg">
<path d="M15.1 47.01L14.7039 47.9282L14.7116 47.9315L14.7193 47.9347L15.1 47.01ZM7.27 41.61L6.53514 42.2883L6.54405 42.2977L7.27 41.61ZM2.23 33.69L1.29764 34.0515L1.30082 34.0597L1.30415 34.0679L2.23 33.69ZM3.49 12.27L2.61317 11.7892L2.61046 11.7942L3.49 12.27ZM12.13 3.36L12.6425 4.21871L12.13 3.36ZM38.5 3.36L37.9814 4.21501L38.5 3.36ZM46.69 12.09L46.982 13.0464L48.1135 12.7009L47.5844 11.6428L46.69 12.09ZM34.9 15.69L34.0373 16.1957L34.4367 16.877L35.192 16.6464L34.9 15.69ZM30.85 11.73L30.3539 12.5982L30.3657 12.605L30.3778 12.6115L30.85 11.73ZM18.97 12.09L19.4926 12.9426L19.5 12.938L18.97 12.09ZM14.56 17.04L15.4493 17.4974L15.4544 17.4872L14.56 17.04ZM14.56 31.8L13.6656 32.2472L13.6731 32.2623L13.6811 32.2771L14.56 31.8ZM19.06 36.84L18.4992 37.6679L18.5084 37.6742L18.5179 37.6803L19.06 36.84ZM29.32 37.92L28.9783 36.9802L28.9711 36.9828L28.964 36.9855L29.32 37.92ZM32.83 35.94L33.4657 36.7119L32.83 35.94ZM35.08 33.06L35.372 32.1036L34.5256 31.8451L34.1662 32.6539L35.08 33.06ZM46.87 36.66L47.778 37.0791L48.2583 36.0383L47.162 35.7036L46.87 36.66ZM42.1 42.96L41.437 42.2114L41.4316 42.2162L41.4262 42.221L42.1 42.96ZM34.81 47.37L35.1567 48.3081L35.1676 48.3039L34.81 47.37ZM25.45 47.9C21.7199 47.9 18.4022 47.2883 15.4808 46.0853L14.7193 47.9347C17.9178 49.2517 21.5001 49.9 25.45 49.9V47.9ZM15.4961 46.0918C12.5528 44.8221 10.0571 43.0979 7.99595 40.9223L6.54405 42.2977C8.80287 44.6821 11.5272 46.5579 14.7039 47.9282L15.4961 46.0918ZM8.0048 40.9317C5.9257 38.6794 4.31051 36.141 3.15585 33.3121L1.30415 34.0679C2.54949 37.119 4.2943 39.8606 6.5352 42.2883L8.0048 40.9317ZM3.16236 33.3285C2.0683 30.507 1.52 27.5398 1.52 24.42H-0.48C-0.48 27.7802 0.111698 30.993 1.29764 34.0515L3.16236 33.3285ZM1.52 24.42C1.52 20.1347 2.47388 16.2499 4.36954 12.7458L2.61046 11.7942C0.546117 15.6101 -0.48 19.8253 -0.48 24.42H1.52ZM4.36681 12.7508C6.3193 9.19041 9.07201 6.34946 12.6425 4.21871L11.6175 2.50129C7.74799 4.81054 4.7407 7.90959 2.61319 11.7892L4.36681 12.7508ZM12.6425 4.21871C16.1819 2.10643 20.4081 1.02999 25.36 1.02999V-0.970005C20.1119 -0.970005 15.5181 0.173557 11.6175 2.50129L12.6425 4.21871ZM25.36 1.02999C30.3124 1.02999 34.5054 2.10661 37.9814 4.21501L39.0186 2.50499C35.1746 0.173382 30.6076 -0.970005 25.36 -0.970005V1.02999ZM37.9814 4.21501C41.4909 6.34372 44.0853 9.11671 45.7956 12.5372L47.5844 11.6428C45.6947 7.86328 42.8291 4.81628 39.0186 2.50499L37.9814 4.21501ZM46.398 11.1336L34.608 14.7336L35.192 16.6464L46.982 13.0464L46.398 11.1336ZM35.7627 15.1843C34.6553 13.2951 33.1741 11.8406 31.3222 10.8485L30.3778 12.6115C31.8859 13.4194 33.1047 14.6049 34.0373 16.1957L35.7627 15.1843ZM31.3461 10.8618C29.5067 9.81067 27.4742 9.29 25.27 9.29V11.29C27.1458 11.29 28.8333 11.7293 30.3539 12.5982L31.3461 10.8618ZM25.27 9.29C22.804 9.29 20.5201 9.94193 18.44 11.242L19.5 12.938C21.2599 11.8381 23.176 11.29 25.27 11.29V9.29ZM18.4474 11.2374C16.4113 12.4854 14.82 14.284 13.6656 16.5928L15.4544 17.4872C16.46 15.476 17.8087 13.9746 19.4926 12.9426L18.4474 11.2374ZM13.6707 16.5826C12.5051 18.8491 11.94 21.4716 11.94 24.42H13.94C13.94 21.7284 14.4549 19.4309 15.4493 17.4973L13.6707 16.5826ZM11.94 24.42C11.94 27.313 12.5068 29.9297 13.6656 32.2472L15.4544 31.3528C14.4532 29.3503 13.94 27.047 13.94 24.42H11.94ZM13.6811 32.2771C14.8925 34.5086 16.4982 36.3124 18.4992 37.6679L19.6208 36.0121C17.9018 34.8476 16.5075 33.2914 15.4389 31.3229L13.6811 32.2771ZM18.5179 37.6803C20.5445 38.9878 22.8038 39.64 25.27 39.64V37.64C23.1762 37.64 21.2955 37.0922 19.6021 35.9997L18.5179 37.6803ZM25.27 39.64C26.8233 39.64 28.2948 39.3807 29.676 38.8545L28.964 36.9855C27.8252 37.4193 26.5967 37.64 25.27 37.64V39.64ZM29.6617 38.8598C31.0818 38.3434 32.3526 37.6286 33.4657 36.7119L32.1943 35.1681C31.2674 35.9314 30.1982 36.5366 28.9783 36.9802L29.6617 38.8598ZM33.4657 36.7119C34.5912 35.785 35.4436 34.704 35.9938 33.4661L34.1662 32.6539C33.7564 33.576 33.1088 34.415 32.1943 35.1681L33.4657 36.7119ZM34.788 34.0164L46.578 37.6164L47.162 35.7036L35.372 32.1036L34.788 34.0164ZM45.962 36.2409C44.945 38.4446 43.4427 40.4349 41.437 42.2114L42.763 43.7086C44.9573 41.7651 46.635 39.5554 47.778 37.0791L45.962 36.2409ZM41.4262 42.221C39.4868 43.9893 37.1667 45.3966 34.4524 46.4361L35.1676 48.3039C38.0933 47.1834 40.6332 45.6507 42.7738 43.699L41.4262 42.221ZM34.4634 46.432C31.8325 47.4043 28.8328 47.9 25.45 47.9V49.9C29.0272 49.9 32.2675 49.3757 35.1567 48.308L34.4634 46.432ZM54.2908 48H53.2908V49H54.2908V48ZM54.2908 0.839996V-0.160004H53.2908V0.839996H54.2908ZM66.3508 0.839996H67.3508V-0.160004H66.3508V0.839996ZM66.3508 18.66H65.3508V19.66H66.3508V18.66ZM70.4008 18.66V19.66H70.9142L71.2134 19.2428L70.4008 18.66ZM83.1808 0.839996V-0.160004H82.6674L82.3682 0.257206L83.1808 0.839996ZM96.3208 0.839996L97.1265 1.43232L98.2971 -0.160004H96.3208V0.839996ZM79.5808 23.61L78.7751 23.0177L78.3323 23.62L78.7847 24.2152L79.5808 23.61ZM98.1208 48V49H100.137L98.9169 47.3948L98.1208 48ZM84.3508 48L83.5526 48.6025L83.8527 49H84.3508V48ZM70.2208 29.28L71.0189 28.6775L70.7189 28.28H70.2208V29.28ZM66.3508 29.28V28.28H65.3508V29.28H66.3508ZM66.3508 48V49H67.3508V48H66.3508ZM55.2908 48V0.839996H53.2908V48H55.2908ZM54.2908 1.84H66.3508V-0.160004H54.2908V1.84ZM65.3508 0.839996V18.66H67.3508V0.839996H65.3508ZM66.3508 19.66H70.4008V17.66H66.3508V19.66ZM71.2134 19.2428L83.9934 1.42279L82.3682 0.257206L69.5882 18.0772L71.2134 19.2428ZM83.1808 1.84H96.3208V-0.160004H83.1808V1.84ZM95.5151 0.247665L78.7751 23.0177L80.3865 24.2023L97.1265 1.43232L95.5151 0.247665ZM78.7847 24.2152L97.3247 48.6052L98.9169 47.3948L80.3769 23.0048L78.7847 24.2152ZM98.1208 47H84.3508V49H98.1208V47ZM85.1489 47.3975L71.0189 28.6775L69.4226 29.8825L83.5526 48.6025L85.1489 47.3975ZM70.2208 28.28H66.3508V30.28H70.2208V28.28ZM65.3508 29.28V48H67.3508V29.28H65.3508ZM66.3508 47H54.2908V49H66.3508V47ZM105.619 48H104.619V49H105.619V48ZM105.619 0.93V-0.0699997H104.619V0.93H105.619ZM117.679 0.93H118.679V-0.0699997H117.679V0.93ZM117.679 31.89H116.679V35.1344L118.505 32.453L117.679 31.89ZM138.829 0.839996V-0.160004H138.3L138.002 0.277031L138.829 0.839996ZM149.809 0.839996H150.809V-0.160004H149.809V0.839996ZM149.809 48V49H150.809V48H149.809ZM137.749 48H136.749V49H137.749V48ZM137.749 17.76H138.749V14.5518L136.926 17.1918L137.749 17.76ZM116.869 48V49H117.394L117.692 48.5682L116.869 48ZM106.619 48V0.93H104.619V48H106.619ZM105.619 1.93H117.679V-0.0699997H105.619V1.93ZM116.679 0.93V31.89H118.679V0.93H116.679ZM118.505 32.453L139.655 1.40296L138.002 0.277031L116.852 31.327L118.505 32.453ZM138.829 1.84H149.809V-0.160004H138.829V1.84ZM148.809 0.839996V48H150.809V0.839996H148.809ZM149.809 47H137.749V49H149.809V47ZM138.749 48V17.76H136.749V48H138.749ZM136.926 17.1918L116.046 47.4318L117.692 48.5682L138.572 18.3282L136.926 17.1918ZM116.869 47H105.619V49H116.869V47ZM156.944 59.43H155.944V60.43H156.944V59.43ZM156.944 37.47V36.47H155.944V37.47H156.944ZM161.534 36.48L161.013 35.6267L161.002 35.6334L160.991 35.6404L161.534 36.48ZM164.324 33.15L163.436 32.6897L163.433 32.6962L163.43 32.7028L164.324 33.15ZM166.304 26.49L165.322 26.3019L165.32 26.312L165.318 26.3222L166.304 26.49ZM167.384 15.69L168.383 15.7311L168.384 15.7263L167.384 15.69ZM167.924 0.839996V-0.160004H166.96L166.925 0.803658L167.924 0.839996ZM203.294 0.839996H204.294V-0.160004H203.294V0.839996ZM203.294 37.47H202.294V38.47H203.294V37.47ZM209.864 37.47H210.864V36.47H209.864V37.47ZM209.864 59.43V60.43H210.864V59.43H209.864ZM199.334 59.43H198.334V60.43H199.334V59.43ZM199.334 48H200.334V47H199.334V48ZM167.564 48V47H166.564V48H167.564ZM167.564 59.43V60.43H168.564V59.43H167.564ZM173.414 37.47L172.73 36.7405L170.885 38.47H173.414V37.47ZM191.234 37.47V38.47H192.234V37.47H191.234ZM191.234 11.01H192.234V10.01H191.234V11.01ZM178.454 11.01V10.01H177.499L177.455 10.9639L178.454 11.01ZM178.184 16.86L177.185 16.8139L177.185 16.8146L178.184 16.86ZM177.284 26.94L176.296 26.7896L176.294 26.7987L176.293 26.8078L177.284 26.94ZM175.754 33.6L174.819 33.2453L174.816 33.2545L174.812 33.2637L175.754 33.6ZM157.944 59.43V37.47H155.944V59.43H157.944ZM156.944 38.47H158.204V36.47H156.944V38.47ZM158.204 38.47C159.6 38.47 160.898 38.0829 162.077 37.3196L160.991 35.6404C160.131 36.1971 159.209 36.47 158.204 36.47V38.47ZM162.056 37.3333C163.345 36.5452 164.385 35.2639 165.219 33.5972L163.43 32.7028C162.703 34.1561 161.883 35.0948 161.013 35.6267L162.056 37.3333ZM165.212 33.6103C166.119 31.8617 166.801 29.5288 167.29 26.6578L165.318 26.3222C164.847 29.0912 164.21 31.1983 163.436 32.6897L165.212 33.6103ZM167.286 26.6781C167.839 23.7914 168.202 20.1376 168.383 15.7311L166.385 15.6489C166.206 20.0024 165.849 23.5486 165.322 26.3019L167.286 26.6781ZM168.384 15.7263L168.924 0.876335L166.925 0.803658L166.385 15.6537L168.384 15.7263ZM167.924 1.84H203.294V-0.160004H167.924V1.84ZM202.294 0.839996V37.47H204.294V0.839996H202.294ZM203.294 38.47H209.864V36.47H203.294V38.47ZM208.864 37.47V59.43H210.864V37.47H208.864ZM209.864 58.43H199.334V60.43H209.864V58.43ZM200.334 59.43V48H198.334V59.43H200.334ZM199.334 47H167.564V49H199.334V47ZM166.564 48V59.43H168.564V48H166.564ZM167.564 58.43H156.944V60.43H167.564V58.43ZM173.414 38.47H191.234V36.47H173.414V38.47ZM192.234 37.47V11.01H190.234V37.47H192.234ZM191.234 10.01H178.454V12.01H191.234V10.01ZM177.455 10.9639L177.185 16.8139L179.183 16.9061L179.453 11.0561L177.455 10.9639ZM177.185 16.8146C177.006 20.7527 176.709 24.0754 176.296 26.7896L178.273 27.0904C178.7 24.2846 179.002 20.8873 179.183 16.9054L177.185 16.8146ZM176.293 26.8078C175.939 29.4634 175.443 31.6018 174.819 33.2453L176.689 33.9547C177.386 32.1182 177.91 29.8166 178.275 27.0722L176.293 26.8078ZM174.812 33.2637C174.248 34.8447 173.541 35.9808 172.73 36.7405L174.098 38.1995C175.208 37.1592 176.061 35.7153 176.696 33.9363L174.812 33.2637ZM217.679 48H216.679V49H217.679V48ZM217.679 0.839996V-0.160004H216.679V0.839996H217.679ZM229.739 0.839996H230.739V-0.160004H229.739V0.839996ZM229.739 18.66H228.739V19.66H229.739V18.66ZM233.789 18.66V19.66H234.303L234.602 19.2428L233.789 18.66ZM246.569 0.839996V-0.160004H246.056L245.757 0.257206L246.569 0.839996ZM259.709 0.839996L260.515 1.43232L261.686 -0.160004H259.709V0.839996ZM242.969 23.61L242.164 23.0177L241.721 23.62L242.173 24.2152L242.969 23.61ZM261.509 48V49H263.526L262.306 47.3948L261.509 48ZM247.739 48L246.941 48.6025L247.241 49H247.739V48ZM233.609 29.28L234.408 28.6775L234.108 28.28H233.609V29.28ZM229.739 29.28V28.28H228.739V29.28H229.739ZM229.739 48V49H230.739V48H229.739ZM218.679 48V0.839996H216.679V48H218.679ZM217.679 1.84H229.739V-0.160004H217.679V1.84ZM228.739 0.839996V18.66H230.739V0.839996H228.739ZM229.739 19.66H233.789V17.66H229.739V19.66ZM234.602 19.2428L247.382 1.42279L245.757 0.257206L232.977 18.0772L234.602 19.2428ZM246.569 1.84H259.709V-0.160004H246.569V1.84ZM258.904 0.247665L242.164 23.0177L243.775 24.2023L260.515 1.43232L258.904 0.247665ZM242.173 24.2152L260.713 48.6052L262.306 47.3948L243.766 23.0048L242.173 24.2152ZM261.509 47H247.739V49H261.509V47ZM248.538 47.3975L234.408 28.6775L232.811 29.8825L246.941 48.6025L248.538 47.3975ZM233.609 28.28H229.739V30.28H233.609V28.28ZM228.739 29.28V48H230.739V29.28H228.739ZM229.739 47H217.679V49H229.739V47ZM272.158 67.89L271.926 68.8629L271.936 68.8651L272.158 67.89ZM267.748 66.54L266.776 66.3018L266.561 67.1782L267.411 67.4817L267.748 66.54ZM270.088 57L270.51 56.0938L269.407 55.5787L269.116 56.7618L270.088 57ZM272.608 57.9L272.383 58.8744L272.39 58.8762L272.398 58.8778L272.608 57.9ZM278.818 56.55L278.149 55.8067L278.139 55.8153L278.13 55.8241L278.818 56.55ZM281.698 51.6L280.76 51.2513L280.753 51.2712L280.746 51.2915L281.698 51.6ZM283.138 47.73L284.075 48.0787L284.211 47.7138L284.064 47.3531L283.138 47.73ZM264.058 0.839996V-0.160004H262.571L263.131 1.2169L264.058 0.839996ZM276.568 0.839996L277.507 0.497669L277.268 -0.160004H276.568V0.839996ZM289.258 35.67L288.318 36.0123L289.318 38.7578L290.21 35.9751L289.258 35.67ZM300.418 0.839996V-0.160004H299.688L299.465 0.534863L300.418 0.839996ZM311.938 0.839996L312.879 1.17643L313.357 -0.160004H311.938V0.839996ZM292.678 54.75L291.736 54.4136L291.735 54.4162L292.678 54.75ZM288.628 62.04L287.865 61.393L287.86 61.3986L287.856 61.4043L288.628 62.04ZM282.868 66.72L282.42 65.8256L282.868 66.72ZM276.028 67.34C274.847 67.34 273.632 67.1996 272.379 66.9149L271.936 68.8651C273.323 69.1804 274.688 69.34 276.028 69.34V67.34ZM272.389 66.9172C271.175 66.6281 269.741 66.1902 268.084 65.5983L267.411 67.4817C269.114 68.0898 270.62 68.5519 271.926 68.8628L272.389 66.9172ZM268.719 66.7782L271.059 57.2382L269.116 56.7618L266.776 66.3018L268.719 66.7782ZM269.665 57.9062C270.614 58.349 271.521 58.6754 272.383 58.8744L272.832 56.9256C272.135 56.7646 271.362 56.491 270.51 56.0938L269.665 57.9062ZM272.398 58.8778C273.288 59.0684 274.11 59.17 274.858 59.17V57.17C274.285 57.17 273.608 57.0916 272.817 56.9222L272.398 58.8778ZM274.858 59.17C276.626 59.17 278.189 58.5228 279.505 57.276L278.13 55.8241C277.166 56.7372 276.089 57.17 274.858 57.17V59.17ZM279.487 57.2933C280.863 56.0547 281.897 54.2258 282.649 51.9085L280.746 51.2915C280.058 53.4142 279.172 54.8853 278.149 55.8067L279.487 57.2933ZM282.635 51.9487L284.075 48.0787L282.2 47.3813L280.76 51.2513L282.635 51.9487ZM284.064 47.3531L264.984 0.463093L263.131 1.2169L282.211 48.1069L284.064 47.3531ZM264.058 1.84H276.568V-0.160004H264.058V1.84ZM275.628 1.18232L288.318 36.0123L290.197 35.3277L277.507 0.497669L275.628 1.18232ZM290.21 35.9751L301.37 1.14513L299.465 0.534863L288.305 35.3649L290.21 35.9751ZM300.418 1.84H311.938V-0.160004H300.418V1.84ZM310.996 0.503559L291.736 54.4136L293.619 55.0864L312.879 1.17643L310.996 0.503559ZM291.735 54.4162C290.748 57.2015 289.454 59.5204 287.865 61.393L289.39 62.687C291.161 60.5996 292.567 58.0585 293.62 55.0838L291.735 54.4162ZM287.856 61.4043C286.256 63.3466 284.444 64.8138 282.42 65.8256L283.315 67.6144C285.611 66.4662 287.639 64.8134 289.4 62.6757L287.856 61.4043ZM282.42 65.8256C280.398 66.8366 278.271 67.34 276.028 67.34V69.34C278.584 69.34 281.017 68.7634 283.315 67.6144L282.42 65.8256Z" fill="#BCBCBC"/>
</svg>
