<svg width="541" height="69" viewBox="0 0 541 69" fill="none" xmlns="http://www.w3.org/2000/svg">
<path d="M8.72 46.02L9.19222 45.1385L8.72 46.02ZM0.8 38.55L0.386832 37.6393L-0.637395 38.104L-0.0560643 39.0669L0.8 38.55ZM10.52 34.14L11.357 33.5928L10.8877 32.8751L10.1068 33.2293L10.52 34.14ZM14.48 37.83L13.9944 38.7042L14.0134 38.7147L14.0328 38.7244L14.48 37.83ZM27.17 37.47L27.7543 38.2816L27.76 38.2774L27.17 37.47ZM17.18 27.48H16.18V28.48H17.18V27.48ZM17.18 20.01V19.01H16.18V20.01H17.18ZM25.01 19.38L25.4841 20.2605L25.4952 20.2545L25.5061 20.2482L25.01 19.38ZM26.9 17.49L26.0483 16.9659L26.0332 16.9905L26.0195 17.0159L26.9 17.49ZM25.82 11.1L25.1759 11.8649L25.1855 11.873L25.1953 11.8809L25.82 11.1ZM15.11 10.83L14.6179 9.95943L14.6096 9.96417L14.6013 9.96907L15.11 10.83ZM11.78 14.34L11.3085 15.2219L12.1623 15.6784L12.6462 14.8397L11.78 14.34ZM2.69 9.48L1.82176 8.98386L1.31145 9.8769L2.21851 10.3619L2.69 9.48ZM9.89 2.55L9.42286 1.66578L9.4159 1.66953L9.89 2.55ZM29.78 1.56L29.4123 2.48999L29.4196 2.49279L29.78 1.56ZM35.99 5.97L35.202 6.58564L35.99 5.97ZM36.71 19.11L35.8269 18.6408L35.8211 18.6517L35.8156 18.6628L36.71 19.11ZM31.94 23.34L31.5643 22.4133L28.8977 23.4943L31.66 24.3L31.94 23.34ZM38.42 27.66L37.603 28.2367L37.6086 28.2446L37.6143 28.2524L38.42 27.66ZM38.15 42.51L38.9219 43.1457L38.9264 43.1402L38.9309 43.1347L38.15 42.51ZM31.31 47.19L31.6438 48.1326L31.6525 48.1296L31.6611 48.1263L31.31 47.19ZM21.32 47.72C16.3936 47.72 12.3677 46.8397 9.19222 45.1385L8.24778 46.9015C11.7923 48.8003 16.1664 49.72 21.32 49.72V47.72ZM9.19222 45.1385C5.98626 43.421 3.48068 41.0552 1.65606 38.0331L-0.0560643 39.0669C1.95932 42.4048 4.73374 45.019 8.24778 46.9015L9.19222 45.1385ZM1.21317 39.4607L10.9332 35.0507L10.1068 33.2293L0.386832 37.6393L1.21317 39.4607ZM9.68303 34.6872C10.7913 36.3823 12.2316 37.7248 13.9944 38.7042L14.9656 36.9558C13.4884 36.1352 12.2887 35.0177 11.357 33.5928L9.68303 34.6872ZM14.0328 38.7244C15.8878 39.6519 18.121 40.09 20.69 40.09V38.09C18.339 38.09 16.4322 37.6881 14.9272 36.9356L14.0328 38.7244ZM20.69 40.09C23.6161 40.09 26.0159 39.5332 27.7543 38.2815L26.5857 36.6585C25.3241 37.5668 23.4039 38.09 20.69 38.09V40.09ZM27.76 38.2774C29.5556 36.9652 30.51 35.2055 30.51 33.06H28.51C28.51 34.5145 27.9044 35.6948 26.58 36.6626L27.76 38.2774ZM30.51 33.06C30.51 31.0909 29.7534 29.4505 28.2492 28.2328L26.9908 29.7872C28.0066 30.6095 28.51 31.6691 28.51 33.06H30.51ZM28.2492 28.2328C26.7396 27.0107 24.6159 26.48 22.04 26.48V28.48C24.3841 28.48 25.9804 28.9693 26.9908 29.7872L28.2492 28.2328ZM22.04 26.48H17.18V28.48H22.04V26.48ZM18.18 27.48V20.01H16.18V27.48H18.18ZM17.18 21.01H22.13V19.01H17.18V21.01ZM22.13 21.01C23.3893 21.01 24.5225 20.7782 25.4841 20.2605L24.5359 18.4995C23.9375 18.8218 23.1507 19.01 22.13 19.01V21.01ZM25.5061 20.2482C26.4931 19.6843 27.2637 18.9239 27.7805 17.9641L26.0195 17.0159C25.6963 17.6161 25.2069 18.1157 24.5139 18.5118L25.5061 20.2482ZM27.7517 18.0141C28.3394 17.059 28.62 15.9734 28.62 14.79H26.62C26.62 15.6466 26.4206 16.361 26.0483 16.9659L27.7517 18.0141ZM28.62 14.79C28.62 12.9777 27.8752 11.4635 26.4447 10.3191L25.1953 11.8809C26.1649 12.6565 26.62 13.6023 26.62 14.79H28.62ZM26.4641 10.3351C25.0555 9.14889 22.9363 8.66 20.33 8.66V10.66C22.7637 10.66 24.3045 11.1311 25.1759 11.8649L26.4641 10.3351ZM20.33 8.66C18.1117 8.66 16.1891 9.07141 14.6179 9.95943L15.6021 11.7006C16.7909 11.0286 18.3483 10.66 20.33 10.66V8.66ZM14.6013 9.96907C13.109 10.8509 11.8848 12.1573 10.9138 13.8403L12.6462 14.8397C13.4752 13.4027 14.471 12.3691 15.6187 11.6909L14.6013 9.96907ZM12.2515 13.4581L3.16149 8.59813L2.21851 10.3619L11.3085 15.2219L12.2515 13.4581ZM3.55824 9.97614C5.14098 7.20634 7.40082 5.02608 10.3641 3.43047L9.4159 1.66953C6.13918 3.43391 3.59902 5.87365 1.82176 8.98386L3.55824 9.97614ZM10.3571 3.43419C13.3708 1.84208 16.8954 1.02999 20.96 1.02999V-0.970005C16.6246 -0.970005 12.7692 -0.102085 9.42288 1.66581L10.3571 3.43419ZM20.96 1.02999C24.1575 1.02999 26.9693 1.52411 29.4123 2.48996L30.1477 0.630035C27.4307 -0.444111 24.3625 -0.970005 20.96 -0.970005V1.02999ZM29.4196 2.49279C31.9186 3.45834 33.8302 4.82972 35.202 6.58564L36.778 5.35435C35.1498 3.27028 32.9214 1.70166 30.1404 0.627197L29.4196 2.49279ZM35.202 6.58564C36.5407 8.29924 37.24 10.4709 37.24 13.17H39.24C39.24 10.1091 38.4393 7.48075 36.778 5.35435L35.202 6.58564ZM37.24 13.17C37.24 15.0357 36.7753 16.8555 35.8269 18.6408L37.5931 19.5792C38.6847 17.5245 39.24 15.3843 39.24 13.17H37.24ZM35.8156 18.6628C34.9772 20.3395 33.5869 21.5933 31.5643 22.4133L32.3157 24.2667C34.7331 23.2867 36.5228 21.7205 37.6044 19.5572L35.8156 18.6628ZM31.66 24.3C34.3681 25.0899 36.3183 26.4167 37.603 28.2367L39.237 27.0833C37.6417 24.8233 35.2719 23.2701 32.22 22.38L31.66 24.3ZM37.6143 28.2524C38.9766 30.1051 39.67 32.2929 39.67 34.86H41.67C41.67 31.9071 40.8634 29.2949 39.2257 27.0676L37.6143 28.2524ZM39.67 34.86C39.67 37.6607 38.8908 39.9832 37.3691 41.8853L38.9309 43.1347C40.7692 40.8368 41.67 38.0593 41.67 34.86H39.67ZM37.3781 41.8743C35.8267 43.7581 33.7019 45.2251 30.9589 46.2537L31.6611 48.1263C34.6781 46.9949 37.1133 45.3419 38.9219 43.1457L37.3781 41.8743ZM30.9762 46.2474C28.2254 47.2216 25.0122 47.72 21.32 47.72V49.72C25.1878 49.72 28.6346 49.1984 31.6438 48.1326L30.9762 46.2474ZM48.4184 26.04L47.616 25.4433L47.6134 25.4468L48.4184 26.04ZM55.6184 20.64L55.2377 19.7153L55.6184 20.64ZM72.1784 19.2L72.0329 20.1894L72.1784 19.2ZM77.4884 20.64L77.0857 21.5553L78.4884 22.1725V20.64H77.4884ZM74.7884 11.19L74.107 11.9219L74.1132 11.9276L74.1195 11.9333L74.7884 11.19ZM59.5784 10.11L59.2195 9.17665L59.5784 10.11ZM52.1984 14.07L51.3 14.509L51.8046 15.5418L52.7576 14.8991L52.1984 14.07ZM48.3284 6.15L47.7812 5.31303L47.0425 5.79603L47.43 6.58902L48.3284 6.15ZM57.8684 1.56L57.5731 0.60458L57.5682 0.606148L57.8684 1.56ZM83.8784 5.07L83.2081 5.81212L83.2141 5.81741L83.8784 5.07ZM90.1784 37.2L89.3891 37.8139L89.4092 37.8398L89.431 37.8644L90.1784 37.2ZM92.4284 38.19H93.4284V37.3008L92.5453 37.1968L92.4284 38.19ZM92.4284 48L92.5928 48.9864L93.4284 48.8471V48H92.4284ZM89.4584 48.45L89.3263 47.4587L89.317 47.4601L89.4584 48.45ZM81.8084 47.01L81.1395 47.7533L81.1485 47.7614L81.1576 47.7693L81.8084 47.01ZM79.5584 43.05L78.5646 43.1604L78.5689 43.1999L78.5764 43.2388L79.5584 43.05ZM79.2884 40.62L80.2823 40.5096L80.0092 38.0517L78.4972 40.0086L79.2884 40.62ZM71.6384 46.74L72.0642 47.6448L71.6384 46.74ZM53.8184 47.01L53.3456 47.8912L53.3583 47.898L53.3712 47.9044L53.8184 47.01ZM47.9684 41.7L47.1129 42.2178L47.121 42.2311L47.1295 42.2442L47.9684 41.7ZM75.2384 36.48L75.9251 37.207L75.9512 37.1823L75.9756 37.1557L75.2384 36.48ZM76.8584 34.32L75.9947 33.8161L76.8584 34.32ZM77.4884 27.57H78.4884V26.9033L77.8731 26.6469L77.4884 27.57ZM72.8084 26.22L72.5989 27.1978L72.6157 27.2014L72.6326 27.2044L72.8084 26.22ZM60.2984 27.75L60.8531 28.5821L60.8587 28.5783L60.2984 27.75ZM58.3184 36.48L57.4652 37.0014L58.3184 36.48ZM71.0084 39.09L71.3631 40.025L71.377 40.0197L71.3908 40.014L71.0084 39.09ZM46.8984 34.05C46.8984 31.1853 47.6805 28.7273 49.2235 26.6332L47.6134 25.4468C45.7964 27.9127 44.8984 30.7947 44.8984 34.05H46.8984ZM49.2209 26.6367C50.8387 24.4611 53.0838 22.7651 55.9992 21.5647L55.2377 19.7153C52.0331 21.0349 49.4782 22.9389 47.616 25.4433L49.2209 26.6367ZM55.9992 21.5647C58.9172 20.3632 62.2939 19.75 66.1484 19.75V17.75C62.083 17.75 58.4397 18.3968 55.2377 19.7153L55.9992 21.5647ZM66.1484 19.75C68.0778 19.75 70.0391 19.8961 72.0329 20.1894L72.3239 18.2106C70.2377 17.9038 68.1791 17.75 66.1484 17.75V19.75ZM72.0329 20.1894C74.006 20.4795 75.6857 20.9393 77.0857 21.5553L77.8912 19.7247C76.2912 19.0207 74.4309 18.5205 72.3239 18.2106L72.0329 20.1894ZM78.4884 20.64V18.12H76.4884V20.64H78.4884ZM78.4884 18.12C78.4884 14.9095 77.5169 12.3002 75.4574 10.4467L74.1195 11.9333C75.66 13.3198 76.4884 15.3305 76.4884 18.12H78.4884ZM75.4699 10.4581C73.4746 8.60046 70.5755 7.76 66.9584 7.76V9.76C70.3013 9.76 72.6223 10.5395 74.107 11.9219L75.4699 10.4581ZM66.9584 7.76C64.2593 7.76 61.6774 8.23131 59.2195 9.17665L59.9374 11.0433C62.1595 10.1887 64.4975 9.76 66.9584 9.76V7.76ZM59.2195 9.17665C56.7945 10.1093 54.2675 11.4684 51.6393 13.2409L52.7576 14.8991C55.2893 13.1916 57.6823 11.9107 59.9374 11.0433L59.2195 9.17665ZM53.0969 13.631L49.2269 5.71097L47.43 6.58902L51.3 14.509L53.0969 13.631ZM48.8757 6.98697C51.9265 4.99221 55.024 3.50384 58.1687 2.51385L57.5682 0.606148C54.2328 1.65615 50.9704 3.22778 47.7812 5.31303L48.8757 6.98697ZM58.1637 2.5154C61.3641 1.5262 64.7143 1.02999 68.2184 1.02999V-0.970005C64.5226 -0.970005 60.9728 -0.446201 57.5731 0.604595L58.1637 2.5154ZM68.2184 1.02999C74.7764 1.02999 79.7269 2.66774 83.2082 5.8121L84.5487 4.3279C80.59 0.752258 75.1004 -0.970005 68.2184 -0.970005V1.02999ZM83.2141 5.81741C86.732 8.94443 88.5484 13.4434 88.5484 19.47H90.5484C90.5484 13.0166 88.5849 7.91556 84.5428 4.32259L83.2141 5.81741ZM88.5484 19.47V34.5H90.5484V19.47H88.5484ZM88.5484 34.5C88.5484 35.8188 88.758 37.0025 89.3891 37.8139L90.9678 36.5861C90.7589 36.3175 90.5484 35.7012 90.5484 34.5H88.5484ZM89.431 37.8644C90.131 38.6518 91.15 39.0465 92.3116 39.1832L92.5453 37.1968C91.6669 37.0935 91.1859 36.8282 90.9258 36.5356L89.431 37.8644ZM91.4284 38.19V48H93.4284V38.19H91.4284ZM92.264 47.0136C91.1927 47.1922 90.2136 47.3405 89.3263 47.4588L89.5906 49.4412C90.5033 49.3195 91.5042 49.1678 92.5928 48.9864L92.264 47.0136ZM89.317 47.4601C88.5063 47.5759 87.8362 47.63 87.2984 47.63V49.63C87.9607 49.63 88.7305 49.5641 89.5999 49.4399L89.317 47.4601ZM87.2984 47.63C85.0327 47.63 83.4719 47.1188 82.4592 46.2507L81.1576 47.7693C82.6649 49.0612 84.7642 49.63 87.2984 49.63V47.63ZM82.4774 46.2667C81.4365 45.3299 80.7986 44.2034 80.5404 42.8612L78.5764 43.2388C78.9183 45.0166 79.7803 46.5301 81.1395 47.7533L82.4774 46.2667ZM80.5523 42.9396L80.2823 40.5096L78.2946 40.7304L78.5646 43.1604L80.5523 42.9396ZM78.4972 40.0086C76.5554 42.5214 74.1313 44.4617 71.2126 45.8352L72.0642 47.6448C75.2655 46.1383 77.9415 43.9986 80.0797 41.2314L78.4972 40.0086ZM71.2126 45.8352C68.2772 47.2166 65.302 47.9 62.2784 47.9V49.9C65.6149 49.9 68.8797 49.1434 72.0642 47.6448L71.2126 45.8352ZM62.2784 47.9C59.2968 47.9 56.6324 47.299 54.2657 46.1156L53.3712 47.9044C56.0444 49.241 59.0201 49.9 62.2784 49.9V47.9ZM54.2913 46.1288C51.9713 44.884 50.1506 43.2266 48.8074 41.1558L47.1295 42.2442C48.6663 44.6134 50.7456 46.496 53.3456 47.8912L54.2913 46.1288ZM48.8239 41.1822C47.544 39.0676 46.8984 36.6985 46.8984 34.05H44.8984C44.8984 37.0415 45.6328 39.7724 47.1129 42.2178L48.8239 41.1822ZM75.9756 37.1557C76.6758 36.3918 77.2607 35.615 77.7222 34.8239L75.9947 33.8161C75.6161 34.465 75.1211 35.1282 74.5013 35.8043L75.9756 37.1557ZM77.7222 34.8239C78.1983 34.0077 78.4884 33.1729 78.4884 32.34H76.4884C76.4884 32.7071 76.3586 33.1923 75.9947 33.8161L77.7222 34.8239ZM78.4884 32.34V27.57H76.4884V32.34H78.4884ZM77.8731 26.6469C76.3599 26.0165 74.7292 25.5472 72.9842 25.2356L72.6326 27.2044C74.2477 27.4928 75.7369 27.9235 77.1038 28.4931L77.8731 26.6469ZM73.018 25.2422C71.2788 24.8695 69.6182 24.68 68.0384 24.68V26.68C69.4587 26.68 70.978 26.8505 72.5989 27.1978L73.018 25.2422ZM68.0384 24.68C64.7719 24.68 61.9827 25.4033 59.7381 26.9217L60.8587 28.5783C62.6941 27.3367 65.0649 26.68 68.0384 26.68V24.68ZM59.7437 26.9179C57.5093 28.4076 56.3284 30.478 56.3284 33.06H58.3284C58.3284 31.202 59.1276 29.7324 60.8531 28.582L59.7437 26.9179ZM56.3284 33.06C56.3284 34.4542 56.7147 35.7734 57.4652 37.0014L59.1717 35.9585C58.6022 35.0266 58.3284 34.0658 58.3284 33.06H56.3284ZM57.4652 37.0014C58.2308 38.2544 59.3344 39.2425 60.7344 39.9758L61.6624 38.2042C60.5425 37.6175 59.726 36.8656 59.1717 35.9585L57.4652 37.0014ZM60.7344 39.9758C62.1661 40.7258 63.8324 41.08 65.6984 41.08V39.08C64.0844 39.08 62.7507 38.7742 61.6624 38.2042L60.7344 39.9758ZM65.6984 41.08C67.6237 41.08 69.5137 40.7265 71.3631 40.025L70.6538 38.155C69.0232 38.7735 67.3732 39.08 65.6984 39.08V41.08ZM71.3908 40.014C73.2145 39.2594 74.7363 38.3297 75.9251 37.207L74.5518 35.753C73.5806 36.6703 72.2824 37.4806 70.6261 38.166L71.3908 40.014ZM122.439 48H121.439V49H122.439V48ZM122.439 0.839996V-0.160004H121.439V0.839996H122.439ZM164.739 0.839996H165.739V-0.160004H164.739V0.839996ZM164.739 48V49H165.739V48H164.739ZM152.679 48H151.679V49H152.679V48ZM152.679 11.37H153.679V10.37H152.679V11.37ZM134.499 11.37V10.37H133.499V11.37H134.499ZM134.499 48V49H135.499V48H134.499ZM123.439 48V0.839996H121.439V48H123.439ZM122.439 1.84H164.739V-0.160004H122.439V1.84ZM163.739 0.839996V48H165.739V0.839996H163.739ZM164.739 47H152.679V49H164.739V47ZM153.679 48V11.37H151.679V48H153.679ZM152.679 10.37H134.499V12.37H152.679V10.37ZM133.499 11.37V48H135.499V11.37H133.499ZM134.499 47H122.439V49H134.499V47ZM187.131 47.01L186.735 47.9282L186.742 47.9315L186.75 47.9347L187.131 47.01ZM179.301 41.61L178.565 42.2875L178.575 42.2977L179.301 41.61ZM174.441 33.78L175.373 33.4185L174.441 33.78ZM174.441 15.15L175.373 15.5115L174.441 15.15ZM179.301 7.32L178.575 6.63219L178.565 6.64252L179.301 7.32ZM187.131 2.01L187.512 2.93467L187.519 2.9315L187.527 2.92821L187.131 2.01ZM207.741 2.01L207.338 2.92531L207.349 2.93013L207.36 2.93467L207.741 2.01ZM215.571 7.32L214.845 8.00774L215.571 7.32ZM220.431 15.15L219.492 15.4948L219.495 15.5032L219.499 15.5115L220.431 15.15ZM220.431 33.78L219.499 33.4185L219.495 33.4268L219.492 33.4352L220.431 33.78ZM215.571 41.61L214.845 40.9222L214.835 40.9325L215.571 41.61ZM207.831 47.01L208.212 47.9347L208.219 47.9315L208.227 47.9282L207.831 47.01ZM186.771 31.89L185.876 32.3372L185.882 32.3474L186.771 31.89ZM191.181 36.84L191.723 35.9997L191.181 36.84ZM203.691 36.84L204.233 37.6803L204.242 37.6742L204.252 37.6679L203.691 36.84ZM208.101 31.8L207.217 31.3332L207.212 31.3427L208.101 31.8ZM208.101 17.13L207.207 17.5772L207.211 17.587L207.217 17.5968L208.101 17.13ZM203.691 12.09L203.149 12.9303H203.149L203.691 12.09ZM191.181 12.18L191.723 13.0203L191.732 13.0142L191.742 13.0079L191.181 12.18ZM186.771 17.22L187.66 17.6774L187.665 17.6672L186.771 17.22ZM197.481 47.9C193.751 47.9 190.433 47.2883 187.512 46.0853L186.75 47.9347C189.949 49.2517 193.531 49.9 197.481 49.9V47.9ZM187.527 46.0918C184.584 44.8221 182.088 43.0979 180.027 40.9223L178.575 42.2977C180.834 44.6821 183.558 46.5579 186.735 47.9282L187.527 46.0918ZM180.036 40.9325C178.023 38.7462 176.469 36.2438 175.373 33.4185L173.509 34.1415C174.693 37.1962 176.379 39.9138 178.565 42.2875L180.036 40.9325ZM175.373 33.4185C174.279 30.5969 173.731 27.6298 173.731 24.51H171.731C171.731 27.8702 172.323 31.083 173.509 34.1415L175.373 33.4185ZM173.731 24.51C173.731 21.3278 174.28 18.3309 175.373 15.5115L173.509 14.7885C172.322 17.8491 171.731 21.0922 171.731 24.51H173.731ZM175.373 15.5115C176.469 12.6862 178.023 10.1838 180.036 7.99747L178.565 6.64252C176.379 9.0162 174.693 11.7338 173.509 14.7885L175.373 15.5115ZM180.027 8.00774C182.085 5.83566 184.575 4.14389 187.512 2.93467L186.75 1.08532C183.567 2.39611 180.837 4.24434 178.575 6.63225L180.027 8.00774ZM187.527 2.92821C190.444 1.66976 193.757 1.02999 197.481 1.02999V-0.970005C193.525 -0.970005 189.938 -0.289772 186.735 1.09179L187.527 2.92821ZM197.481 1.02999C201.206 1.02999 204.485 1.66991 207.338 2.92531L208.144 1.09468C204.997 -0.289921 201.436 -0.970005 197.481 -0.970005V1.02999ZM207.36 2.93467C210.297 4.14388 212.787 5.83566 214.845 8.00774L216.297 6.63225C214.035 4.24434 211.305 2.39611 208.122 1.08532L207.36 2.93467ZM214.845 8.00774C216.912 10.1894 218.459 12.6828 219.492 15.4948L221.37 14.8052C220.243 11.7372 218.55 9.01064 216.297 6.63225L214.845 8.00774ZM219.499 15.5115C220.592 18.3309 221.141 21.3278 221.141 24.51H223.141C223.141 21.0922 222.55 17.8491 221.363 14.7885L219.499 15.5115ZM221.141 24.51C221.141 27.6298 220.593 30.5969 219.499 33.4185L221.363 34.1415C222.549 31.083 223.141 27.8702 223.141 24.51H221.141ZM219.492 33.4352C218.459 36.2472 216.912 38.7406 214.845 40.9223L216.297 42.2977C218.55 39.9194 220.243 37.1928 221.37 34.1248L219.492 33.4352ZM214.835 40.9325C212.837 43.1018 210.376 44.8231 207.435 46.0918L208.227 47.9282C211.406 46.5569 214.104 44.6782 216.306 42.2875L214.835 40.9325ZM207.45 46.0853C204.529 47.2883 201.211 47.9 197.481 47.9V49.9C201.431 49.9 205.013 49.2517 208.212 47.9347L207.45 46.0853ZM184.151 24.51C184.151 27.403 184.718 30.0197 185.877 32.3372L187.665 31.4428C186.664 29.4403 186.151 27.137 186.151 24.51H184.151ZM185.882 32.3474C187.036 34.5924 188.622 36.3789 190.639 37.6803L191.723 35.9997C190.02 34.9011 188.666 33.3876 187.66 31.4327L185.882 32.3474ZM190.639 37.6803C192.67 38.9906 194.96 39.64 197.481 39.64V37.64C195.322 37.64 193.412 37.0894 191.723 35.9997L190.639 37.6803ZM197.481 39.64C199.947 39.64 202.206 38.9878 204.233 37.6803L203.149 35.9997C201.455 37.0922 199.575 37.64 197.481 37.64V39.64ZM204.252 37.6679C206.258 36.309 207.838 34.4986 208.99 32.2573L207.212 31.3427C206.204 33.3014 204.844 34.851 203.13 36.0121L204.252 37.6679ZM208.985 32.2668C210.211 29.9451 210.811 27.3213 210.811 24.42H208.811C208.811 27.0387 208.271 29.3349 207.217 31.3332L208.985 32.2668ZM210.811 24.42C210.811 21.5748 210.209 18.9818 208.985 16.6632L207.217 17.5968C208.273 19.5982 208.811 21.8652 208.811 24.42H210.811ZM208.995 16.6828C207.843 14.3776 206.257 12.5555 204.233 11.2497L203.149 12.9303C204.845 14.0245 206.199 15.5624 207.207 17.5772L208.995 16.6828ZM204.233 11.2497C202.206 9.94218 199.947 9.29 197.481 9.29V11.29C199.575 11.29 201.455 11.8378 203.149 12.9303L204.233 11.2497ZM197.481 9.29C194.95 9.29 192.653 9.9751 190.62 11.3521L191.742 13.0079C193.429 11.8649 195.332 11.29 197.481 11.29V9.29ZM190.639 11.3397C188.615 12.6455 187.029 14.4676 185.877 16.7728L187.665 17.6672C188.673 15.6524 190.027 14.1145 191.723 13.0203L190.639 11.3397ZM185.882 16.7626C184.718 19.0262 184.151 21.6178 184.151 24.51H186.151C186.151 21.8822 186.664 19.6138 187.66 17.6773L185.882 16.7626ZM226.411 59.43H225.411V60.43H226.411V59.43ZM226.411 37.47V36.47H225.411V37.47H226.411ZM231.001 36.48L230.48 35.6267L230.469 35.6334L230.458 35.6404L231.001 36.48ZM233.791 33.15L232.903 32.6897L232.9 32.6962L232.897 32.7028L233.791 33.15ZM235.771 26.49L234.789 26.3019L234.787 26.312L234.785 26.3222L235.771 26.49ZM236.851 15.69L237.85 15.7311L237.85 15.7263L236.851 15.69ZM237.391 0.839996V-0.160004H236.427L236.392 0.803658L237.391 0.839996ZM272.761 0.839996H273.761V-0.160004H272.761V0.839996ZM272.761 37.47H271.761V38.47H272.761V37.47ZM279.331 37.47H280.331V36.47H279.331V37.47ZM279.331 59.43V60.43H280.331V59.43H279.331ZM268.801 59.43H267.801V60.43H268.801V59.43ZM268.801 48H269.801V47H268.801V48ZM237.031 48V47H236.031V48H237.031ZM237.031 59.43V60.43H238.031V59.43H237.031ZM242.881 37.47L242.197 36.7405L240.352 38.47H242.881V37.47ZM260.701 37.47V38.47H261.701V37.47H260.701ZM260.701 11.01H261.701V10.01H260.701V11.01ZM247.921 11.01V10.01H246.966L246.922 10.9639L247.921 11.01ZM247.651 16.86L246.652 16.8139L246.652 16.8146L247.651 16.86ZM246.751 26.94L245.762 26.7896L245.761 26.7987L245.76 26.8078L246.751 26.94ZM245.221 33.6L244.286 33.2453L244.283 33.2545L244.279 33.2637L245.221 33.6ZM227.411 59.43V37.47H225.411V59.43H227.411ZM226.411 38.47H227.671V36.47H226.411V38.47ZM227.671 38.47C229.066 38.47 230.365 38.0829 231.544 37.3196L230.458 35.6404C229.597 36.1971 228.676 36.47 227.671 36.47V38.47ZM231.522 37.3333C232.812 36.5452 233.852 35.2639 234.685 33.5972L232.897 32.7028C232.17 34.1561 231.35 35.0948 230.48 35.6267L231.522 37.3333ZM234.679 33.6103C235.585 31.8617 236.268 29.5288 236.757 26.6578L234.785 26.3222C234.314 29.0912 233.677 31.1983 232.903 32.6897L234.679 33.6103ZM236.753 26.6781C237.306 23.7914 237.669 20.1376 237.85 15.7311L235.852 15.6489C235.673 20.0024 235.316 23.5486 234.789 26.3019L236.753 26.6781ZM237.85 15.7263L238.39 0.876335L236.392 0.803658L235.852 15.6537L237.85 15.7263ZM237.391 1.84H272.761V-0.160004H237.391V1.84ZM271.761 0.839996V37.47H273.761V0.839996H271.761ZM272.761 38.47H279.331V36.47H272.761V38.47ZM278.331 37.47V59.43H280.331V37.47H278.331ZM279.331 58.43H268.801V60.43H279.331V58.43ZM269.801 59.43V48H267.801V59.43H269.801ZM268.801 47H237.031V49H268.801V47ZM236.031 48V59.43H238.031V48H236.031ZM237.031 58.43H226.411V60.43H237.031V58.43ZM242.881 38.47H260.701V36.47H242.881V38.47ZM261.701 37.47V11.01H259.701V37.47H261.701ZM260.701 10.01H247.921V12.01H260.701V10.01ZM246.922 10.9639L246.652 16.8139L248.65 16.9061L248.92 11.0561L246.922 10.9639ZM246.652 16.8146C246.473 20.7527 246.175 24.0754 245.762 26.7896L247.74 27.0904C248.167 24.2846 248.469 20.8873 248.65 16.9054L246.652 16.8146ZM245.76 26.8078C245.406 29.4634 244.909 31.6018 244.286 33.2453L246.156 33.9547C246.853 32.1182 247.376 29.8166 247.742 27.0722L245.76 26.8078ZM244.279 33.2637C243.715 34.8447 243.007 35.9808 242.197 36.7405L243.565 38.1995C244.675 37.1592 245.527 35.7153 246.163 33.9363L244.279 33.2637ZM287.146 48H286.146V49H287.146V48ZM287.146 0.839996V-0.160004H286.146V0.839996H287.146ZM329.446 0.839996H330.446V-0.160004H329.446V0.839996ZM329.446 48V49H330.446V48H329.446ZM317.386 48H316.386V49H317.386V48ZM317.386 11.37H318.386V10.37H317.386V11.37ZM299.206 11.37V10.37H298.206V11.37H299.206ZM299.206 48V49H300.206V48H299.206ZM288.146 48V0.839996H286.146V48H288.146ZM287.146 1.84H329.446V-0.160004H287.146V1.84ZM328.446 0.839996V48H330.446V0.839996H328.446ZM329.446 47H317.386V49H329.446V47ZM318.386 48V11.37H316.386V48H318.386ZM317.386 10.37H299.206V12.37H317.386V10.37ZM298.206 11.37V48H300.206V11.37H298.206ZM299.206 47H287.146V49H299.206V47ZM340.408 48H339.408V49H340.408V48ZM340.408 0.93V-0.0699997H339.408V0.93H340.408ZM352.468 0.93H353.468V-0.0699997H352.468V0.93ZM352.468 31.89H351.468V35.1344L353.294 32.453L352.468 31.89ZM373.618 0.839996V-0.160004H373.089L372.792 0.277031L373.618 0.839996ZM384.598 0.839996H385.598V-0.160004H384.598V0.839996ZM384.598 48V49H385.598V48H384.598ZM372.538 48H371.538V49H372.538V48ZM372.538 17.76H373.538V14.5518L371.715 17.1918L372.538 17.76ZM351.658 48V49H352.183L352.481 48.5682L351.658 48ZM341.408 48V0.93H339.408V48H341.408ZM340.408 1.93H352.468V-0.0699997H340.408V1.93ZM351.468 0.93V31.89H353.468V0.93H351.468ZM353.294 32.453L374.444 1.40296L372.792 0.277031L351.641 31.327L353.294 32.453ZM373.618 1.84H384.598V-0.160004H373.618V1.84ZM383.598 0.839996V48H385.598V0.839996H383.598ZM384.598 47H372.538V49H384.598V47ZM373.538 48V17.76H371.538V48H373.538ZM371.715 17.1918L350.835 47.4318L352.481 48.5682L373.361 18.3282L371.715 17.1918ZM351.658 47H340.408V49H351.658V47ZM407.213 47.01L406.817 47.9282L406.825 47.9315L406.833 47.9347L407.213 47.01ZM399.383 41.61L398.648 42.2883L398.657 42.2977L399.383 41.61ZM394.343 33.69L393.411 34.0515L393.414 34.0597L393.417 34.0679L394.343 33.69ZM395.603 12.27L394.726 11.7892L394.724 11.7942L395.603 12.27ZM404.243 3.36L404.756 4.21871L404.243 3.36ZM430.613 3.36L430.095 4.21501L430.613 3.36ZM438.803 12.09L439.095 13.0464L440.227 12.7009L439.698 11.6428L438.803 12.09ZM427.013 15.69L426.151 16.1957L426.55 16.877L427.305 16.6464L427.013 15.69ZM422.963 11.73L422.467 12.5982L422.479 12.605L422.491 12.6115L422.963 11.73ZM411.083 12.09L411.606 12.9426L411.613 12.938L411.083 12.09ZM406.673 17.04L407.563 17.4974L407.568 17.4872L406.673 17.04ZM406.673 31.8L405.779 32.2472L405.786 32.2623L405.794 32.2771L406.673 31.8ZM411.173 36.84L410.612 37.6679L410.622 37.6742L410.631 37.6803L411.173 36.84ZM421.433 37.92L421.092 36.9802L421.084 36.9828L421.077 36.9855L421.433 37.92ZM424.943 35.94L425.579 36.7119L424.943 35.94ZM427.193 33.06L427.485 32.1036L426.639 31.8451L426.279 32.6539L427.193 33.06ZM438.983 36.66L439.891 37.0791L440.372 36.0383L439.275 35.7036L438.983 36.66ZM434.213 42.96L433.55 42.2114L433.545 42.2162L433.54 42.221L434.213 42.96ZM426.923 47.37L427.27 48.3081L427.281 48.3039L426.923 47.37ZM417.563 47.9C413.833 47.9 410.515 47.2883 407.594 46.0853L406.833 47.9347C410.031 49.2517 413.613 49.9 417.563 49.9V47.9ZM407.609 46.0918C404.666 44.8221 402.17 43.0979 400.109 40.9223L398.657 42.2977C400.916 44.6821 403.64 46.5579 406.817 47.9282L407.609 46.0918ZM400.118 40.9317C398.039 38.6794 396.424 36.141 395.269 33.3121L393.417 34.0679C394.663 37.119 396.408 39.8606 398.648 42.2883L400.118 40.9317ZM395.276 33.3285C394.182 30.507 393.633 27.5398 393.633 24.42H391.633C391.633 27.7802 392.225 30.993 393.411 34.0515L395.276 33.3285ZM393.633 24.42C393.633 20.1347 394.587 16.2499 396.483 12.7458L394.724 11.7942C392.659 15.6101 391.633 19.8253 391.633 24.42H393.633ZM396.48 12.7508C398.433 9.19041 401.185 6.34946 404.756 4.21871L403.731 2.50129C399.861 4.81054 396.854 7.90959 394.726 11.7892L396.48 12.7508ZM404.756 4.21871C408.295 2.10643 412.521 1.02999 417.473 1.02999V-0.970005C412.225 -0.970005 407.631 0.173557 403.731 2.50129L404.756 4.21871ZM417.473 1.02999C422.426 1.02999 426.619 2.10661 430.095 4.21501L431.132 2.50499C427.288 0.173382 422.721 -0.970005 417.473 -0.970005V1.02999ZM430.095 4.21501C433.604 6.34372 436.199 9.11671 437.909 12.5372L439.698 11.6428C437.808 7.86328 434.942 4.81628 431.132 2.50499L430.095 4.21501ZM438.511 11.1336L426.721 14.7336L427.305 16.6464L439.095 13.0464L438.511 11.1336ZM427.876 15.1843C426.769 13.2951 425.287 11.8406 423.436 10.8485L422.491 12.6115C423.999 13.4194 425.218 14.6049 426.151 16.1957L427.876 15.1843ZM423.459 10.8618C421.62 9.81067 419.587 9.29 417.383 9.29V11.29C419.259 11.29 420.947 11.7293 422.467 12.5982L423.459 10.8618ZM417.383 9.29C414.917 9.29 412.633 9.94193 410.553 11.242L411.613 12.938C413.373 11.8381 415.289 11.29 417.383 11.29V9.29ZM410.561 11.2374C408.525 12.4854 406.933 14.284 405.779 16.5928L407.568 17.4872C408.573 15.476 409.922 13.9746 411.606 12.9426L410.561 11.2374ZM405.784 16.5826C404.618 18.8491 404.053 21.4716 404.053 24.42H406.053C406.053 21.7284 406.568 19.4309 407.563 17.4973L405.784 16.5826ZM404.053 24.42C404.053 27.313 404.62 29.9297 405.779 32.2472L407.568 31.3528C406.566 29.3503 406.053 27.047 406.053 24.42H404.053ZM405.794 32.2771C407.006 34.5086 408.611 36.3124 410.612 37.6679L411.734 36.0121C410.015 34.8476 408.621 33.2914 407.552 31.3229L405.794 32.2771ZM410.631 37.6803C412.658 38.9878 414.917 39.64 417.383 39.64V37.64C415.289 37.64 413.409 37.0922 411.715 35.9997L410.631 37.6803ZM417.383 39.64C418.937 39.64 420.408 39.3807 421.789 38.8545L421.077 36.9855C419.939 37.4193 418.71 37.64 417.383 37.64V39.64ZM421.775 38.8598C423.195 38.3434 424.466 37.6286 425.579 36.7119L424.308 35.1681C423.381 35.9314 422.311 36.5366 421.092 36.9802L421.775 38.8598ZM425.579 36.7119C426.705 35.785 427.557 34.704 428.107 33.4661L426.279 32.6539C425.87 33.576 425.222 34.415 424.308 35.1681L425.579 36.7119ZM426.901 34.0164L438.691 37.6164L439.275 35.7036L427.485 32.1036L426.901 34.0164ZM438.075 36.2409C437.058 38.4446 435.556 40.4349 433.55 42.2114L434.876 43.7086C437.071 41.7651 438.748 39.5554 439.891 37.0791L438.075 36.2409ZM433.54 42.221C431.6 43.9893 429.28 45.3966 426.566 46.4361L427.281 48.3039C430.207 47.1834 432.746 45.6507 434.887 43.699L433.54 42.221ZM426.577 46.432C423.946 47.4043 420.946 47.9 417.563 47.9V49.9C421.14 49.9 424.381 49.3757 427.27 48.308L426.577 46.432ZM446.404 48H445.404V49H446.404V48ZM446.404 0.839996V-0.160004H445.404V0.839996H446.404ZM458.464 0.839996H459.464V-0.160004H458.464V0.839996ZM458.464 18.66H457.464V19.66H458.464V18.66ZM462.514 18.66V19.66H463.027L463.327 19.2428L462.514 18.66ZM475.294 0.839996V-0.160004H474.781L474.481 0.257206L475.294 0.839996ZM488.434 0.839996L489.24 1.43232L490.41 -0.160004H488.434V0.839996ZM471.694 23.61L470.888 23.0177L470.446 23.62L470.898 24.2152L471.694 23.61ZM490.234 48V49H492.25L491.03 47.3948L490.234 48ZM476.464 48L475.666 48.6025L475.966 49H476.464V48ZM462.334 29.28L463.132 28.6775L462.832 28.28H462.334V29.28ZM458.464 29.28V28.28H457.464V29.28H458.464ZM458.464 48V49H459.464V48H458.464ZM447.404 48V0.839996H445.404V48H447.404ZM446.404 1.84H458.464V-0.160004H446.404V1.84ZM457.464 0.839996V18.66H459.464V0.839996H457.464ZM458.464 19.66H462.514V17.66H458.464V19.66ZM463.327 19.2428L476.107 1.42279L474.481 0.257206L461.701 18.0772L463.327 19.2428ZM475.294 1.84H488.434V-0.160004H475.294V1.84ZM487.628 0.247665L470.888 23.0177L472.5 24.2023L489.24 1.43232L487.628 0.247665ZM470.898 24.2152L489.438 48.6052L491.03 47.3948L472.49 23.0048L470.898 24.2152ZM490.234 47H476.464V49H490.234V47ZM477.262 47.3975L463.132 28.6775L461.536 29.8825L475.666 48.6025L477.262 47.3975ZM462.334 28.28H458.464V30.28H462.334V28.28ZM457.464 29.28V48H459.464V29.28H457.464ZM458.464 47H446.404V49H458.464V47ZM500.882 67.89L500.651 68.8629L500.661 68.8651L500.882 67.89ZM496.472 66.54L495.501 66.3018L495.286 67.1782L496.136 67.4817L496.472 66.54ZM498.812 57L499.235 56.0938L498.131 55.5787L497.841 56.7618L498.812 57ZM501.332 57.9L501.107 58.8744L501.115 58.8762L501.123 58.8778L501.332 57.9ZM507.542 56.55L506.873 55.8067L506.864 55.8153L506.854 55.8241L507.542 56.55ZM510.422 51.6L509.485 51.2513L509.478 51.2712L509.471 51.2915L510.422 51.6ZM511.862 47.73L512.799 48.0787L512.935 47.7138L512.788 47.3531L511.862 47.73ZM492.782 0.839996V-0.160004H491.296L491.856 1.2169L492.782 0.839996ZM505.292 0.839996L506.232 0.497669L505.992 -0.160004H505.292V0.839996ZM517.982 35.67L517.043 36.0123L518.043 38.7578L518.935 35.9751L517.982 35.67ZM529.142 0.839996V-0.160004H528.413L528.19 0.534863L529.142 0.839996ZM540.662 0.839996L541.604 1.17643L542.081 -0.160004H540.662V0.839996ZM521.402 54.75L520.46 54.4136L520.46 54.4162L521.402 54.75ZM517.352 62.04L516.59 61.393L516.585 61.3986L516.58 61.4043L517.352 62.04ZM511.592 66.72L511.145 65.8256L511.592 66.72ZM504.752 67.34C503.572 67.34 502.356 67.1996 501.104 66.9149L500.661 68.8651C502.048 69.1804 503.412 69.34 504.752 69.34V67.34ZM501.114 66.9172C499.9 66.6281 498.466 66.1902 496.809 65.5983L496.136 67.4817C497.838 68.0898 499.345 68.5519 500.651 68.8628L501.114 66.9172ZM497.443 66.7782L499.783 57.2382L497.841 56.7618L495.501 66.3018L497.443 66.7782ZM498.389 57.9062C499.338 58.349 500.245 58.6754 501.107 58.8744L501.557 56.9256C500.859 56.7646 500.086 56.491 499.235 56.0938L498.389 57.9062ZM501.123 58.8778C502.012 59.0684 502.834 59.17 503.582 59.17V57.17C503.01 57.17 502.332 57.0916 501.542 56.9222L501.123 58.8778ZM503.582 59.17C505.351 59.17 506.914 58.5228 508.23 57.276L506.854 55.8241C505.891 56.7372 504.813 57.17 503.582 57.17V59.17ZM508.211 57.2933C509.587 56.0547 510.622 54.2258 511.373 51.9085L509.471 51.2915C508.783 53.4142 507.897 54.8853 506.873 55.8067L508.211 57.2933ZM511.359 51.9487L512.799 48.0787L510.925 47.3813L509.485 51.2513L511.359 51.9487ZM512.788 47.3531L493.708 0.463093L491.856 1.2169L510.936 48.1069L512.788 47.3531ZM492.782 1.84H505.292V-0.160004H492.782V1.84ZM504.353 1.18232L517.043 36.0123L518.922 35.3277L506.232 0.497669L504.353 1.18232ZM518.935 35.9751L530.094 1.14513L528.19 0.534863L517.03 35.3649L518.935 35.9751ZM529.142 1.84H540.662V-0.160004H529.142V1.84ZM539.72 0.503559L520.461 54.4136L522.344 55.0864L541.604 1.17643L539.72 0.503559ZM520.46 54.4162C519.473 57.2015 518.179 59.5204 516.59 61.393L518.115 62.687C519.886 60.5996 521.291 58.0585 522.345 55.0838L520.46 54.4162ZM516.58 61.4043C514.981 63.3466 513.168 64.8138 511.145 65.8256L512.039 67.6144C514.336 66.4662 516.364 64.8134 518.124 62.6757L516.58 61.4043ZM511.145 65.8256C509.123 66.8366 506.996 67.34 504.752 67.34V69.34C507.308 69.34 509.741 68.7634 512.039 67.6144L511.145 65.8256Z" fill="#BCBCBC"/>
</svg>
